<?xml version="1.0" encoding="UTF-8" standalone="no"?>
<!-- Generator: Adobe Illustrator 10.0, SVG Export Plug-In . SVG Version: 3.0.0 Build 43)  -->

<svg
   width="879.03558"
   height="965.27466"
   viewBox="0 0 879.0356 965.27466"
   style="overflow:visible"
   xml:space="preserve"
   version="1.1"
   id="svg9"
   sodipodi:docname="idisearchlogo.svg"
   inkscape:version="1.1.2 (0a00cf5339, 2022-02-04)"
   xmlns:inkscape="http://www.inkscape.org/namespaces/inkscape"
   xmlns:sodipodi="http://sodipodi.sourceforge.net/DTD/sodipodi-0.dtd"
   xmlns="http://www.w3.org/2000/svg"
   xmlns:svg="http://www.w3.org/2000/svg"><defs
   id="defs13" /><sodipodi:namedview
   id="namedview11"
   pagecolor="#ffffff"
   bordercolor="#666666"
   borderopacity="1.0"
   inkscape:pageshadow="2"
   inkscape:pageopacity="0.0"
   inkscape:pagecheckerboard="true"
   showgrid="false"
   inkscape:zoom="0.45613599"
   inkscape:cx="361.73423"
   inkscape:cy="502.04326"
   inkscape:window-width="1728"
   inkscape:window-height="1011"
   inkscape:window-x="0"
   inkscape:window-y="32"
   inkscape:window-maximized="1"
   inkscape:current-layer="layer2"
   fit-margin-left="100"
   fit-margin-top="100"
   fit-margin-right="100"
   fit-margin-bottom="100"
   lock-margins="true" />
	
<g
   inkscape:groupmode="layer"
   id="layer1"
   inkscape:label="Layer 1"
   style="display:inline"
   transform="translate(-284.59979,-277.73754)"><g
     id="Layer_1"
     class="st0"
     transform="matrix(0.51882909,0,0,0.51882909,363.56401,327.91303)"
     style="overflow:visible;fill:#60a5fa">
		<path
   class="st3"
   d="m 668.939,572.576 c 24.24907,-53.96723 19.10942,-118.13355 8.21572,-174.49816 38.02349,-9.57082 -73.23857,-67.63208 -29.73979,-62.99456 10.16859,-10.34556 -3.79625,-73.4182 -32.75261,-51.28027 25.72176,52.25025 -36.83534,-41.68694 -46.25914,-59.26723 -15.52202,-34.26176 -72.95753,-120.18848 -47.41599,-128.503178 22.19533,56.305838 85.75445,51.542848 121.61359,88.709878 41.21977,56.6056 15.8154,145.46606 76.92647,189.74727 22.05732,44.15585 39.56563,17.87019 28.13732,-18.19098 -3.97352,-65.39267 44.91068,30.12451 41.13809,57.68708 3.52338,63.13188 87.9405,94.14177 142.58004,71.34817 32.99922,-15.55621 82.6231,-55.56912 78.1721,9.95852 -8.7761,42.69665 -42.78382,113.46201 -67.06115,128.19439 -69.3535,-36.0761 -63.52609,73.96923 -85.01529,113.5347 -31.27429,41.15884 -51.40957,93.65075 -95.56412,125.43952 -45.7024,44.7348 -114.63836,-14.02504 -56.72694,-53.85702 31.60687,-58.5112 -11.6034,-136.20416 -77.58951,-141.68661 -78.30874,-41.15972 14.4663,-65.05689 41.34121,-94.34152 z"
   id="path2"
   style="fill:#60a5fa" />
		<path
   class="st3"
   d="m 390.792,1267.012 c -18.93545,-56.7782 37.67435,-96.0716 66.60554,-122.0687 -15.60957,-27.6125 96.81236,21.883 77.3639,-23.7233 -56.3685,-35.8693 27.39417,-99.2692 52.2944,-136.5827 56.66237,-45.71192 23.69617,-115.52899 43.74031,-158.36781 -14.55372,-10.43485 -40.82099,52.29469 -28.80403,-4.77702 -14.41136,3.28125 -67.45983,54.03363 -78.79332,-6.44125 -12.66843,-36.44291 -7.93373,-63.26267 -46.16605,-26.05729 -34.96515,37.40082 -42.4877,88.32274 -69.37368,134.01817 -21.71573,56.12956 -46.97001,114.4013 -98.52265,149.465 -47.24969,42.4258 -92.86267,89.1679 -151.40979,116.0105 -12.68571,57.6957 -93.025943,82.9093 -79.950776,148.3547 -3.099712,-49.5935 -45.835571,30.4288 -6.612517,12.698 -5.376749,21.3382 -51.027383,58.2414 -19.75717,51.548 1.347491,25.5454 22.381229,-21.5867 10.597778,14.3766 38.676575,22.9724 99.049225,0.6413 137.644325,39.2904 83.10901,21.0966 156.22155,-60.1952 166.92696,-136.9248 4.90674,-18.1621 11.63868,-36.4537 24.21677,-50.8185 z"
   id="path4"
   style="fill:#60a5fa" />
		<path
   class="st3"
   d="m 146.798,1474.963 c -27.30302,29.3823 -2.112,82.9925 28.63352,34.9308 -14.5663,-7.5287 -4.10436,-47.4401 -28.63352,-34.9308 z"
   id="path6"
   style="fill:#60a5fa" />
    </g></g><g
   inkscape:groupmode="layer"
   id="layer2"
   inkscape:label="Layer 2"
   transform="translate(-284.59979,-277.73754)"
   style="display:inline"><path
     fill="none"
     stroke="#000000"
     stroke-width="43.8065"
     stroke-linecap="round"
     d="m 805.10899,879.61829 a 186.17771,186.17771 0 1 0 -2.4337,2.4337 l 206.86411,206.86411 m -110.73313,-142.37118 133.85323,133.85328 -31.638,31.6381 -133.85327,-133.85334"
     id="path156"
     style="fill:#ffffff" /></g><g
   inkscape:groupmode="layer"
   id="layer3"
   inkscape:label="Layer 3"
   transform="translate(-284.59979,-277.73754)"
   style="display:inline"><path
     d="m 557.57515,806.79856 c 0,-14.48742 11.74519,-26.24136 26.24137,-26.24136 2.72472,0 5.29639,0.52974 7.77346,1.29839 l 22.87591,-30.51269 c -2.77666,-4.15106 -4.40799,-9.1566 -4.40799,-14.52133 0,-14.48742 11.75393,-26.24137 26.24137,-26.24137 14.48741,0 26.24136,11.75395 26.24136,26.24137 0,2.73348 -0.52974,5.29639 -1.30715,7.77346 l 30.50395,22.87591 c 4.16856,-2.76791 9.15715,-4.40799 14.53883,-4.40799 1.09339,0 2.11844,0.18806 3.17793,0.32474 l 30.44382,-60.87124 c -4.54468,-4.71525 -7.38038,-11.10503 -7.38038,-18.17762 0,-14.48743 11.75394,-26.24138 26.24136,-26.24138 14.48743,0 26.24138,11.75395 26.24138,26.24138 0,14.48742 -11.75395,26.24137 -26.24138,26.24137 -1.09339,0 -2.11844,-0.18806 -3.17793,-0.32473 l -30.42687,60.87124 c 4.54468,4.71524 7.36344,11.10501 7.36344,18.17761 0,14.48742 -11.75395,26.24137 -26.24137,26.24137 -14.48743,0 -26.24138,-11.75395 -26.24138,-26.24137 0,-2.71654 0.52975,-5.29639 1.29841,-7.77347 l -30.50396,-22.87591 c -4.1598,2.76792 -9.15714,4.40801 -14.53006,4.40801 -2.72473,0 -5.2964,-0.52975 -7.76471,-1.29841 l -22.88412,30.49521 c 2.77611,4.16855 4.40746,9.15715 4.40746,14.53881 0,14.48742 -11.74521,26.24137 -26.24138,26.24137 -14.49618,0 -26.24137,-11.75395 -26.24137,-26.24137 z M 750.01187,684.33883 c 0,4.83497 3.91216,8.74713 8.74712,8.74713 4.83498,0 8.74713,-3.91216 8.74713,-8.74713 0,-4.83497 -3.91215,-8.74712 -8.74713,-8.74712 -4.83496,0 -8.74712,3.91215 -8.74712,8.74712 z m -52.48273,104.96549 c 0,4.83497 3.91214,8.74712 8.74712,8.74712 4.83496,0 8.74712,-3.91215 8.74712,-8.74712 0,-4.83498 -3.91216,-8.74712 -8.74712,-8.74712 -4.83498,0 -8.74712,3.91214 -8.74712,8.74712 z m -69.977,-52.48275 c 0,4.83498 3.91215,8.74712 8.74713,8.74712 4.83497,0 8.74712,-3.91214 8.74712,-8.74712 0,-4.83496 -3.91215,-8.74712 -8.74712,-8.74712 -4.83498,0 -8.74713,3.91216 -8.74713,8.74712 z m -52.48275,69.97699 c 0,4.83498 3.91215,8.74713 8.74713,8.74713 4.83497,0 8.74712,-3.91215 8.74712,-8.74713 0,-4.83497 -3.91215,-8.74712 -8.74712,-8.74712 -4.83498,0 -8.74713,3.91215 -8.74713,8.74712 z"
     id="path287"
     style="fill:#60a5fa;fill-opacity:1;stroke-width:0.546695"
     sodipodi:nodetypes="ssccsssccsccssssccsssccsccsssssssssssssssssssssss" /></g></svg>
